<?xml version="1.0" encoding="UTF-8" standalone="no"?>
<!-- Created with Inkscape (http://www.inkscape.org/) -->

<svg
   xmlns:dc="http://purl.org/dc/elements/1.1/"
   xmlns:cc="http://creativecommons.org/ns#"
   xmlns:rdf="http://www.w3.org/1999/02/22-rdf-syntax-ns#"
   xmlns:svg="http://www.w3.org/2000/svg"
   xmlns="http://www.w3.org/2000/svg"
   xmlns:xlink="http://www.w3.org/1999/xlink"
   xmlns:inkscape="http://www.inkscape.org/namespaces/inkscape"
   version="1.1"
   width="691.42859"
   height="691.42859"
   id="svg2">
  <metadata
     id="metadata7">
    <rdf:RDF>
      <cc:Work
         rdf:about="">
        <dc:format>image/svg+xml</dc:format>
        <dc:type
           rdf:resource="http://purl.org/dc/dcmitype/StillImage" />
        <dc:title></dc:title>
      </cc:Work>
    </rdf:RDF>
  </metadata>
  <g
     transform="translate(-26.332964,-180.46681)"
     id="layer1"
     style="display:inline">
    <path
       d="m 153.21657,585.76907 c 0.63824,-1.60742 1.41119,-3.16769 1.91471,-4.82226 0.51951,-1.70715 3.48026,-15.17496 3.59847,-15.70087 2.57766,-11.46716 3.61399,-15.3175 5.71704,-27.56024 1.10448,-6.42965 1.99548,-12.89415 2.99322,-19.34123 -2.79811,-58.45063 -7.9123,-116.75805 -11.51054,-175.15932 -0.94128,-15.27747 -1.72536,-30.56421 -2.58804,-45.84632 -1.91669,-46.27338 -2.27674,-92.64025 -0.50562,-138.92651 0.54603,-14.26976 1.2069,-28.5416 2.34528,-42.77635 2.53274,-31.670556 4.34887,-39.272334 9.24297,-69.314797 0.8677,-15.939061 8.27769,-30.219104 11.6334,-45.51458934 2.25162,-10.26298426 0.41767,-22.38485966 5.40524,-32.05773366 0.78183,-1.516273 2.1731,-2.630406 3.25964,-3.945609 14.86483,-5.258971 10.12251,-4.171421 41.25502,1.091521 2.00068,0.338215 2.87093,2.884556 4.10213,4.497397 3.74569,4.906745 5.74627,8.650396 6.51215,15.109956 0.57158,4.820859 0.13184,9.708355 0.19776,14.56253221 0.37302,7.06410359 0.0277,14.20306079 1.11907,21.19231079 1.42904,9.15168 4.42261,17.991418 6.41207,27.037823 2.37254,10.788335 4.64863,21.600547 6.67246,32.459702 3.86743,20.751307 8.72025,52.283687 11.4695,73.031637 1.6777,12.6612 3.02765,25.36368 4.54148,38.04552 5.62704,56.55335 8.61935,113.3159 12.4791,170.00402 1.58838,23.32854 5.0337,70.72785 6.70747,93.91743 5.01733,63.59077 9.79919,127.2661 18.49502,190.48924 5.44978,39.62271 7.04448,45.42569 14.3226,83.58025 9.09811,40.08296 18.45232,80.16487 30.84412,119.38363 2.23923,7.08694 4.32246,14.24142 7.08471,21.14133 2.32367,5.80434 5.42875,11.26446 8.14313,16.89668 7.44394,9.56073 15.6184,21.41766 26.04171,28.2083 1.96697,1.28146 4.16458,2.24341 6.41939,2.89679 1.50204,0.43525 6.24376,0.36396 4.68056,0.31966 -11.88557,-0.33688 -23.76728,-0.79832 -35.65092,-1.19747 14.46447,-10.81861 20.32063,-21.89682 23.36643,-40.14066 1.71762,-10.28827 1.23392,-20.82522 1.73618,-31.24378 1.76288,-36.56824 1.88865,-47.06451 3.03628,-85.26837 1.79439,-129.55297 -0.55934,-259.11778 -1.88174,-388.66501 -0.47576,-69.15796 -0.31253,-138.38163 3.28652,-207.46808 1.57496,-30.23229 2.40577,-36.86963 4.96224,-65.686118 -1.07629,-14.959201 4.97099,-29.507231 4.82552,-44.390535 -0.0507,-5.186474 -1.78227,-10.219212 -2.65501,-15.33198 -1.54421,-9.046373 -2.92564,-17.885345 -3.49517,-27.036731 -0.46257,-5.3437518 1.00512,-10.4679978 3.06891,-15.328298 0,0 36.95817,1.7980276 36.95817,1.7980276 l 0,0 c -3.18964,5.0355075 -7.16531,9.5191296 -10.64195,14.3635394 -5.62405,8.523812 -10.99473,17.147219 -15.48244,26.346143 -2.43765,4.996701 -5.4542,9.822495 -6.86686,15.199626 -3.78173,14.394715 -1.00597,30.037734 -4.82549,44.388046 -2.55648,28.81465 -3.38729,35.45146 -4.96221,65.68196 -3.59913,69.08491 -3.76224,138.30706 -3.28651,207.46349 1.3224,129.54842 3.67613,259.11442 1.88173,388.66858 -1.14763,38.2046 -1.27342,48.70159 -3.03629,85.27063 -1.03528,21.47583 -4.49323,34.17755 2.55224,54.32332 11.76043,33.62771 7.84192,3.37464 9.61721,20.90154 -13.4023,0.56664 -26.79311,1.81324 -40.20691,1.69993 -0.70803,-0.006 -0.46853,-1.34466 -0.57646,-2.04444 -0.20182,-1.3085 -0.21395,-2.63948 -0.34911,-3.95653 -1.01275,-9.86815 -2.24189,-19.71565 -2.97941,-29.61153 -8.75452,-32.65568 0.16674,-0.77026 -11.64979,-38.17226 -12.3915,-39.22193 -21.74659,-79.30667 -30.84434,-119.39274 -7.27816,-38.15758 -8.87276,-43.96057 -14.32269,-83.58619 -8.69564,-63.22462 -13.47772,-126.90138 -18.49506,-190.49361 -1.67423,-23.19608 -5.11867,-70.58313 -6.70747,-93.91802 -3.85963,-56.68655 -6.85185,-113.44754 -12.47906,-169.99928 -1.51382,-12.68108 -2.86377,-25.38279 -4.54145,-38.04323 -2.74957,-20.74935 -7.60144,-52.27387 -11.46941,-73.026501 C 249.20167,75.912587 239.5853,28.316719 237.02311,21.281861 234.3374,13.907875 229.68115,7.4092123 226.01017,0.47288812 218.1704,-9.2732674 210.59698,-19.657264 200.1354,-26.866323 c -1.92603,-1.327227 -8.40846,-2.868765 -6.13289,-3.409969 10.0705,-2.395088 40.68095,-1.070458 20.5848,-1.806086 -2.64054,0.877236 -5.45194,1.350032 -7.92162,2.631709 -6.4131,3.328176 -14.79877,10.799015 -19.23051,15.954163 -3.85912,4.4890543 -7.93287,8.9907158 -10.49237,14.32862909 -3.85125,8.03187101 -10.13505,38.81534791 -11.63315,45.50335291 -4.89406,30.038102 -6.71025,37.639127 -9.24287,69.305354 -1.1384,14.23379 -1.79924,28.50469 -2.34526,42.7735 -1.77114,46.28392 -1.41107,92.64847 0.5056,138.9195 0.86268,15.2818 1.64676,30.56824 2.58804,45.8454 2.5386,41.20225 3.17417,45.54531 5.98616,85.96769 1.53396,22.05061 2.68906,44.12738 4.34193,66.1694 0.57594,7.68056 1.35201,15.3448 2.02802,23.0172 4.41693,15.66702 8.79878,31.32929 14.02944,46.74993 0.42371,1.24916 4.70146,13.34245 5.75523,15.52741 0.78993,1.63789 1.90549,3.09771 2.85824,4.64656 0,0 -38.59762,0.51165 -38.59762,0.51165 z"
       id="path2993"
       style="fill:none;stroke:none" />
    <g
       id="g4023">
      <path
         d="M 345.71875,0 C 159.8854,0 8.3083012,146.62847 0.34375,330.5 c 40.598861,-0.82708 80.232879,-4.85096 115.25,-19.8125 40.66991,-17.37677 75.05239,-49.07372 101.375,-86.375 26.44049,-37.46831 46.45959,-82.17599 77.96875,-121.65625 15.83579,-19.84188 35.00977,-38.31763 58.78125,-50.8125 17.9638,-9.44222 38.52513,-15.17736 59.40625,-14.71875 6.96037,0.15287 13.9572,1.00141 20.90625,2.625 18.99214,4.43735 36.12718,14.43662 49.65625,27.96875 13.50054,13.5036 23.18704,30.22711 28.78125,48.09375 11.18629,35.72648 5.67624,74.13025 -9.59375,106.75 -15.17949,32.42642 -39.28663,58.99048 -65.78125,80.78125 -26.44838,21.75274 -55.29493,39.02397 -83.34375,55.84375 -28.01981,16.8024 -55.45729,33.313 -79.5,53.09375 -23.99656,19.74279 -44.74089,43.08799 -57.28125,69.875 -12.45006,26.59415 -16.42908,57.41999 -8.09375,84.09375 4.16661,13.33351 11.39586,25.68766 21,35.3125 9.57572,9.59636 21.7866,16.63702 34.625,19.65625 18.68779,4.39485 39.92527,0.47719 58.28125,-9.03125 l 0.3125,-0.15625 c 18.60636,-9.71912 34.90584,-24.92785 48.96875,-42.4375 28.28842,-35.22176 48.23173,-79.11893 77.0625,-119.75 28.94847,-40.79695 67.32373,-76.5832 114.65625,-96.75 41.04439,-17.48764 84.92461,-21.49199 127.34375,-22.25 C 683.33613,146.80985 531.66889,0 345.71875,0 z m 345.3125,362.125 c -40.50579,0.82367 -80.04024,4.82356 -115,19.71875 -40.62668,17.30966 -75.02596,48.91614 -101.40625,86.09375 -26.49799,37.34351 -46.63681,81.89625 -78.21875,121.21875 -15.87227,19.76247 -35.07755,38.14812 -58.84375,50.5625 -23.94585,12.50823 -52.47637,18.46174 -80.21875,11.9375 -18.96952,-4.46111 -36.08917,-14.4663 -49.59375,-28 -13.47616,-13.5052 -23.10801,-30.23892 -28.6875,-48.09375 -11.15687,-35.70294 -5.66441,-74.06382 9.59375,-106.65625 15.16788,-32.39957 39.24895,-58.97239 65.71875,-80.75 26.42365,-21.73963 55.25438,-38.97463 83.28125,-55.78125 28.0448,-16.81738 55.52673,-33.36209 79.59375,-53.15625 24.0208,-19.75615 44.76199,-43.09587 57.3125,-69.90625 12.46001,-26.61707 16.41985,-57.49604 8.0625,-84.1875 C 478.44739,111.78268 471.21513,99.43606 461.59375,89.8125 452.00092,80.21749 439.75949,73.19055 426.90625,70.1875 408.07739,65.7883 386.68089,69.81227 368.25,79.5 349.63886,89.28247 333.37544,104.57487 319.34375,122.15625 291.11797,157.52251 271.27279,201.53913 242.5,242.3125 213.60935,283.2529 175.2342,319.18929 127.84375,339.4375 86.759446,356.99132 42.852344,361.01808 0.375,361.78125 8.7677869,545.25567 160.17097,691.4375 345.71875,691.4375 c 185.43146,0 336.74583,-145.99987 345.3125,-329.3125 z"
         transform="translate(26.332964,180.46681)"
         id="path3184"
         style="fill:#d37883;fill-opacity:1;fill-rule:nonzero;stroke:none" />
    </g>
  </g>
</svg>
