<?xml version="1.0" encoding="UTF-8" standalone="no"?>
<!-- Created with Inkscape (http://www.inkscape.org/) -->

<svg
   xmlns:dc="http://purl.org/dc/elements/1.1/"
   xmlns:cc="http://creativecommons.org/ns#"
   xmlns:rdf="http://www.w3.org/1999/02/22-rdf-syntax-ns#"
   xmlns:svg="http://www.w3.org/2000/svg"
   xmlns="http://www.w3.org/2000/svg"
   version="1.1"
   width="1096.0078"
   height="778.08148"
   id="svg3039">
  <metadata
     id="metadata3045">
    <rdf:RDF>
      <cc:Work
         rdf:about="">
        <dc:format>image/svg+xml</dc:format>
        <dc:type
           rdf:resource="http://purl.org/dc/dcmitype/StillImage" />
        <dc:title></dc:title>
      </cc:Work>
    </rdf:RDF>
  </metadata>
  <defs
     id="defs3043" />
  <path
     d="m 579.12547,776.73816 c -20.88858,-7.6617 -34.36629,-36.9724 -40.2153,-87.4585 -1.3755,-11.8727 -1.57928,-20.28153 -1.12671,-46.49409 0.87508,-50.68415 5.02966,-61.09953 20.12561,-135.02629 10.65555,-52.18159 14.85497,-83.87569 14.96884,-112.97371 0.11464,-29.29473 -3.11453,-49.39652 -10.21324,-63.57798 -3.07545,-6.14399 -4.46879,-7.8272 -8.20458,-9.91143 -4.07308,-2.27241 -5.54358,-2.50395 -15.5,-2.44059 -9.08592,0.0578 -13.61011,0.7043 -26,3.7152 -19.11407,4.64495 -28.6321,6.09217 -35.08163,5.33415 -17.5324,-2.06059 -26.42332,-15.25533 -22.00158,-32.65188 2.42376,-9.53587 12.93886,-29.99516 26.19483,-50.96747 36.02416,-56.99391 53.18605,-91.93932 58.92909,-119.99269 2.31996,-11.33244 2.95077,-27.483473 1.49206,-38.201753 -1.45233,-10.67145 -5.92813,-25.24322 -9.76476,-31.79093 -10.84878,-18.51491 -31.37621,-26.03044 -51.85427,-18.98495 -11.6925,4.02281 -27.39284,13.86015 -32.51649,20.37382 -1.8341,2.33168 -1.95062,3.05343 -0.90176,5.58562 4.53663,10.95239 -4.26219,22.08915 -15.01542,19.00516 -11.73809,-3.36644 -16.47163,-20.63267 -9.69135,-35.35048 6.86599,-14.90384 31.11689,-32.23106 54.31625,-38.8088502 10.02762,-2.84316 26.63821,-3.08402 36.39503,-0.52773 38.38975,10.0581002 61.00618,49.2489502 58.67797,101.6800832 -1.76328,39.70904 -15.87557,72.71157 -67.13091,156.99008 -10.90665,17.93367 -18.1676,31.73541 -17.20309,32.69992 0.40188,0.40188 7.57639,-0.95454 15.94336,-3.01428 19.46761,-4.79243 25.06996,-5.65346 36.71267,-5.64245 17.81632,0.0169 29.74883,4.68005 39.99013,15.62804 13.40838,14.3336 20.01905,37.83408 20.04371,71.25404 0.0205,27.78153 -2.88557,57.23994 -10.12124,102.59735 -8.11288,50.85629 -17.32946,95.64616 -19.4571,119 -2.16138,23.72416 -3.00484,69.46032 -1.54912,83.99999 4.02281,40.1795 10.99208,63.8804 22.44844,76.3421 6.54248,7.1166 7.56784,9.9998 5.26989,14.8187 -2.75233,5.7717 -10.00898,7.7079 -17.95933,4.7918 z m -349.02043,-1.0366 c -12.70723,-3.0761 -26.11147,-12.4223 -37.22176,-25.9532 -17.73578,-21.5999 -36.87382,-60.1762 -50.58456,-101.96279 -14.85731,-45.28101 -28.5162,-114.0646 -33.26178,-167.5 -4.3333,-48.79321 -5.47675,-116.39339 -2.73176,-161.5 1.37018,-22.51527 6.74009,-77.62743 12.08207,-124 5.54617,-48.14518 6.25423,-71.79148 2.52564,-84.34697 -1.81278,-6.1043 -3.08483,-6.4142 -9.50702,-2.31612 -10.284,6.56236 -25.10542,25.63279 -34.63888,44.56916 -32.28626,64.13038 -47.89397,143.50272 -45.93373,233.59393 1.13368,52.1034 5.34463,89.74895 15.21264,136 4.939,23.14891 15.61882,67.76822 20.35343,85.03473 9.15667,33.39322 23.88826,72.19986 32.917783,86.71346 2.393117,3.8466 3.021127,4.2488 6.642977,4.2538 7.82353,0.011 14.29304,6.7236 13.16705,13.6623 -2.04413,12.5965 -19.239577,16.4651 -32.77598,7.374 C 75.30052,711.90216 61.7988,686.66766 46.93058,645.64731 36.30794,616.34023 15.68119,533.48836 9.0263401,493.39661 2.0295197,451.24467 0.05232966,424.92779 0.00240966,373.28557 c -0.0417,-43.11475 0.42431,-52.49873 4.04715004,-81.5 C 14.29807,209.74505 43.72564,132.87742 78.53195,97.230437 c 26.33887,-26.97502 55.19168,-27.94842 66.55875,-2.24546 4.95427,11.202483 5.87122,17.994743 5.84557,43.300593 -0.0131,12.925 -0.5971,29.8 -1.29778,37.5 -0.70069,7.7 -3.25584,34.7 -5.67813,60 -5.32871,55.6568 -6.14655,67.15594 -7.61003,107 -2.00548,54.60054 0.95932,118.73669 7.71806,166.96126 12.79028,91.26046 35.24435,162.38042 65.99795,209.03873 9.76268,14.8116 18.51761,22.9544 27.4276,25.5097 13.81444,3.962 21.96615,-20.4996 21.96615,-65.9157 0,-44.64821 -4.26286,-75.0813 -23.96569,-171.09399 -17.91808,-87.31548 -30.53008,-161.28799 -36.04672,-211.42282 -6.17341,-56.10365 -5.35762,-108.21589 2.35723,-150.57718 7.81784,-42.92682 23.65559,-87.463083 42.01795,-118.155843 6.57955,-10.99774 8.19094,-12.9923 12.73394,-15.7619 8.93851,-5.4492802 20.23662,0.92066 20.23662,11.40951 0,3.32148 -1.58062,7.56698 -6.7652,18.17116 -21.48584,43.94559 -35.63287,94.941113 -40.18027,144.837073 -1.29099,14.16538 -1.5146,24.39104 -1.04964,48 0.79869,40.55346 3.93802,69.74881 14.67766,136.5 5.12123,31.83046 17.45018,97.79939 18.46798,98.81719 0.2272,0.22721 9.54878,-2.11756 20.71462,-5.21058 35.58242,-9.85663 50.75367,-12.80673 136.30152,-26.50429 31.44887,-5.03546 53.17288,-7.15147 80.0516,-7.79736 13.77838,-0.33109 26.76616,-0.28033 28.86173,0.1128 5.12495,0.96145 8.58667,4.55026 8.58667,8.90193 0,5.24117 -3.1121,8.32503 -10.80412,10.70608 -8.46638,2.62075 -32.9757,7.5613 -44.48014,8.96625 -4.83134,0.59001 -11.13134,1.52153 -14,2.07005 -2.86866,0.54851 -11.06574,1.85889 -18.21574,2.91194 -19.89591,2.93027 -100.35244,16.60385 -115,19.54424 -15.5218,3.11589 -50.47976,11.72979 -59.25,14.59965 -4.35489,1.42503 -6.25,2.55148 -6.25,3.71499 0,0.91841 2.66925,14.94422 5.93167,31.16847 13.62299,67.74819 18.0516,103.3006 18.06264,145.00473 0.0118,44.5375 -6.21988,70.1289 -21.00622,86.2656 -10.91948,11.9167 -25.08927,16.079 -41.34314,12.1443 z m 563.8095,-1.8705 c -6.3655,-6.3655 -2.2302,-16.4596 35.0463,-85.5455 11.1285,-20.62499 40.7764,-75.64999 48.7731,-90.49999 20.1531,-37.42483 45.9679,-82.79647 71.6098,-125.8598 6.1765,-10.37289 10.9934,-19.09642 10.7042,-19.38563 -1.4825,-1.48253 -39.8532,-8.3839 -62.0879,-11.16715 -40.0005,-5.00711 -67.4395,-6.40466 -114.3515,-5.82423 -29.9863,0.37101 -46.6815,1.05614 -63.6485,2.61197 -12.65,1.15998 -33.125,3.02352 -45.5,4.1412 -29.34419,2.65032 -35.2251,3.50547 -48.99995,7.12519 -9.84529,2.58711 -12.03235,2.86267 -15.19977,1.9151 -4.64601,-1.38992 -7.80023,-5.67345 -7.80023,-10.59299 0,-14.74102 21.66664,-21.4364 90.49995,-27.96611 8.8,-0.83479 23.65,-2.29011 33,-3.23405 25.0345,-2.52737 112.0149,-2.51378 139,0.0217 36.1992,3.40126 65.1275,8.1251 93.8982,15.33308 7.644,1.91507 14.4579,3.26715 15.1421,3.00462 2.6888,-1.03182 31.43406,-55.94131 48.48826,-92.62293 27.6916,-59.56142 42.0801,-105.75874 42.3141,-135.85867 0.071,-9.17949 -0.1427,-10.52591 -1.8811,-11.82788 -3.5051,-2.62527 -17.394,-0.0137 -32.607,6.13123 -5.7913,2.33926 -8.3618,4.37892 -20,15.86978 -19.61056,19.36232 -34.02446,28.22929 -47.76066,29.38089 -6.9319,0.58115 -7.0939,0.65765 -7.0939,3.3506 0,3.99146 -7.3516,13.31319 -22.4916,28.5189 -20.5626,20.6518 -33.1777,31.62236 -50.0084,31.63236 -8.7899,0.005 -17.7799,-2.45499 -24.5209,-6.71042 -9.3128,-5.87891 -17.0688,-13.29262 -20.5542,-26.24757 -2.1458,-7.97558 -2.9208,-34.91687 -1.5701,-46.37017 5.2063,-44.14438 22.998,-87.23363 49.8228,-120.66396 14.4825,-18.048743 42.2293,-43.145873 55.5516,-50.246553 10.892,-5.80538 24.8008,-5.12849 31.4604,1.53106 2.6835,2.68353 3.3104,4.09619 3.3104,7.46006 0,8.62746 -4.8392,13.05034 -14.2789,13.05034 -6.979,0 -11.5713,2.98918 -26.1169,17 -29.4013,28.320303 -48.6888,59.348533 -59.0531,95.000003 -12.3921,42.62719 -12.2196,76.73899 0.4543,83.31257 5.243,2.7194 13.6369,-2.35111 22.6506,-6.88874 3.9358,-1.98134 14.8253,-9.37462 24.1988,-16.42951 9.3736,-7.05489 17.9659,-13.12003 19.0941,-13.47809 2.3089,-0.73282 2.5099,-2.32375 0.9869,-7.80849 -0.8208,-2.95555 -0.7021,-4.99991 0.538,-9.26571 3.1705,-10.90597 21.9255,-26.5745 47.1343,-39.37744 5.55949,-2.82351 11.02246,-6.13062 12.13996,-7.34913 4.9913,-5.44259 18.4689,-31.2742 26.7319,-51.23538 10.7758,-26.031613 13.6464,-39.546523 13.414,-63.153943 -0.195,-19.80579 0.744,-23.14483 7.4941,-26.64783 7.2037,-3.73836 14.4467,0.64081 17.2802,10.44766 4.9977,17.29733 5.2173,18.55373 5.2741,30.18173 0.1042,21.35644 -5.9685,42.561473 -22.337,77.997703 -1.983,4.29297 -3.6054,8.00547 -3.6054,8.25 0,0.24453 3.7849,0.4446 8.4109,0.4446 19.3666,0 32.3178,8.65546 37.3781,24.98038 2.6049,8.40331 2.2677,32.63542 -0.689,49.51962 -6.0089,34.31319 -19.8611,74.2577 -43.8687,126.5 -10.5938,23.05298 -24.4421,50.80609 -33.648,67.43362 -4.3212,7.80476 -6.2231,12.17097 -5.4971,12.61965 0.6105,0.37732 4.3284,1.20713 8.2619,1.84403 15.0513,2.43703 20.6519,5.85478 20.6519,12.6027 0,8.11193 -7.5887,11.1963 -24.9183,10.1278 -5.8199,-0.35885 -12.2469,-0.92716 -14.2821,-1.26292 -3.53777,-0.58364 -3.81427,-0.41825 -6.29006,3.76232 -23.5455,39.75898 -35.1376,59.60544 -46.945,80.3728 -24.1031,42.39338 -27.943,49.28936 -40.092,72 -47.0098,87.87722 -81.2961,145.53902 -97.5418,156.38742 -7.3784,4.9272 -11.7398,5.3945 -15.4762,1.6581 z M 628.46009,317.74961 c -17.05547,-4.77156 -30.01189,-20.09524 -34.541,-40.852 -2.29345,-10.51078 -1.57609,-38.38358 1.36692,-53.11204 6.06937,-30.37439 13.50541,-52.49953 32.93682,-98 16.6107,-38.895513 51.59131,-102.563263 58.23971,-106.001283 3.6716,-1.89867 8.2955,-1.91307 11.9232,-0.0371 3.4328,1.77516 6.3737,8.4254 5.4527,12.33012 -1.1981,5.07929 -9.6298,23.67412 -22.376,49.34701 -23.13136,46.590313 -44.60898,100.752503 -52.07405,131.320363 -8.25833,33.81608 -7.71251,63.01456 1.33192,71.25126 6.34418,5.77759 14.86014,6.19016 28.23978,1.3681 22.03315,-7.94082 23.84785,-8.37773 27.85055,-6.70529 4.4797,1.87173 6.144,5.17678 5.1839,10.29443 -0.5587,2.97817 -2.3189,5.3767 -7.9828,10.87764 -15.3654,14.92317 -39.00433,22.54818 -55.55165,17.91879 z M 315.43354,302.85787 c -13.19987,-2.75801 -26.71458,-11.25363 -35.52301,-22.33049 -19.95325,-25.09181 -27.65299,-77.04021 -19.8972,-134.24181 3.81847,-28.16256 15.47145,-61.734833 29.14818,-83.975973 5.20018,-8.45656 13.26591,-18.90268 20.73796,-26.85824 3.79788,-4.04364 5.06403,-6.17836 5.23323,-8.82325 0.6989,-10.92485 16.41724,-23.8681702 31.82739,-26.20837015 7.69436,-1.16847 17.17455,0.16048 23.3048,3.26691995 5.38719,2.72989 12.59518,10.0067202 16.45639,16.6135402 16.49738,28.22824 25.67171,131.584083 16.64206,187.485373 -6.58536,40.76897 -22.77893,71.40858 -45.77995,86.61956 -12.46318,8.24212 -28.12542,11.38303 -42.14985,8.45274 z M 339.0247,271.0062 c 9.38989,-4.75822 18.83263,-16.90644 25.11065,-32.30522 8.90494,-21.84213 12.769,-47.98138 12.62659,-85.41541 -0.1686,-44.31956 -5.61766,-89.473693 -13.49429,-111.821843 l -2.22815,-6.32184 -3.5397,0.65832 c -6.57113,1.22211 -18.93657,8.51579 -25.64672,15.12757 -14.83466,14.61718 -28.92592,42.79951 -37.38964,74.778753 -13.01188,49.164 -8.68726,114.42416 9.04481,136.48934 9.15009,11.38606 23.43876,14.93056 35.51645,8.81033 z m 402.14264,30.26373 c -4.0945,-3.22071 -5.0518,-7.85595 -4.4229,-21.41638 1.049,-22.61819 10.9693,-64.08853 37.8119,-158.06798 12.3982,-43.407373 27.836,-85.605733 33.09,-91.198313 4.6189,-4.91664 13.1305,-4.78534 17.888,0.27595 2.056,2.18734 2.4114,3.5212 2.3317,8.75152 -0.1022,6.71897 -7.3589,27.49664 -25.9592,91.883033 -25.7744,89.22002 -31.1551,109.03332 -38.504,141.78067 -2.2825,10.17108 -4.9908,20.14104 -6.0185,22.15548 -3.8035,7.45561 -10.9079,10.01224 -16.217,5.83602 z"
     id="path3052"
     style="fill:#2c2c2c" />
  <g
     transform="translate(-0.04916694,-460.88314)"
     id="layer1"
     style="display:inline" />
</svg>
