<?xml version="1.0" encoding="UTF-8" standalone="no"?>
<!-- Created with Inkscape (http://www.inkscape.org/) -->

<svg
   xmlns:dc="http://purl.org/dc/elements/1.1/"
   xmlns:cc="http://creativecommons.org/ns#"
   xmlns:rdf="http://www.w3.org/1999/02/22-rdf-syntax-ns#"
   xmlns:svg="http://www.w3.org/2000/svg"
   xmlns="http://www.w3.org/2000/svg"
   xmlns:inkscape="http://www.inkscape.org/namespaces/inkscape"
   version="1.1"
   width="691.42859"
   height="691.42859"
   id="svg2">
  <defs
     id="defs4">
    <inkscape:path-effect
       effect="spiro"
       id="path-effect3013" />
    <inkscape:path-effect
       effect="spiro"
       id="path-effect3009" />
  </defs>
  <metadata
     id="metadata7">
    <rdf:RDF>
      <cc:Work
         rdf:about="">
        <dc:format>image/svg+xml</dc:format>
        <dc:type
           rdf:resource="http://purl.org/dc/dcmitype/StillImage" />
        <dc:title></dc:title>
      </cc:Work>
    </rdf:RDF>
  </metadata>
  <g
     transform="translate(-26.332964,-180.46681)"
     id="layer1">
    <path
       d="m 153.21657,585.76907 c 0.63824,-1.60742 1.41119,-3.16769 1.91471,-4.82226 0.51951,-1.70715 3.48026,-15.17496 3.59847,-15.70087 2.57766,-11.46716 3.61399,-15.3175 5.71704,-27.56024 1.10448,-6.42965 1.99548,-12.89415 2.99322,-19.34123 -2.79811,-58.45063 -7.9123,-116.75805 -11.51054,-175.15932 -0.94128,-15.27747 -1.72536,-30.56421 -2.58804,-45.84632 -1.91669,-46.27338 -2.27674,-92.64025 -0.50562,-138.92651 0.54603,-14.26976 1.2069,-28.5416 2.34528,-42.77635 2.53274,-31.670556 4.34887,-39.272334 9.24297,-69.314797 0.8677,-15.939061 8.27769,-30.219104 11.6334,-45.51458934 2.25162,-10.26298426 0.41767,-22.38485966 5.40524,-32.05773366 0.78183,-1.516273 2.1731,-2.630406 3.25964,-3.945609 14.86483,-5.258971 10.12251,-4.171421 41.25502,1.091521 2.00068,0.338215 2.87093,2.884556 4.10213,4.497397 3.74569,4.906745 5.74627,8.650396 6.51215,15.109956 0.57158,4.820859 0.13184,9.708355 0.19776,14.56253221 0.37302,7.06410359 0.0277,14.20306079 1.11907,21.19231079 1.42904,9.15168 4.42261,17.991418 6.41207,27.037823 2.37254,10.788335 4.64863,21.600547 6.67246,32.459702 3.86743,20.751307 8.72025,52.283687 11.4695,73.031637 1.6777,12.6612 3.02765,25.36368 4.54148,38.04552 5.62704,56.55335 8.61935,113.3159 12.4791,170.00402 1.58838,23.32854 5.0337,70.72785 6.70747,93.91743 5.01733,63.59077 9.79919,127.2661 18.49502,190.48924 5.44978,39.62271 7.04448,45.42569 14.3226,83.58025 9.09811,40.08296 18.45232,80.16487 30.84412,119.38363 2.23923,7.08694 4.32246,14.24142 7.08471,21.14133 2.32367,5.80434 5.42875,11.26446 8.14313,16.89668 7.44394,9.56073 15.6184,21.41766 26.04171,28.2083 1.96697,1.28146 4.16458,2.24341 6.41939,2.89679 1.50204,0.43525 6.24376,0.36396 4.68056,0.31966 -11.88557,-0.33688 -23.76728,-0.79832 -35.65092,-1.19747 14.46447,-10.81861 20.32063,-21.89682 23.36643,-40.14066 1.71762,-10.28827 1.23392,-20.82522 1.73618,-31.24378 1.76288,-36.56824 1.88865,-47.06451 3.03628,-85.26837 1.79439,-129.55297 -0.55934,-259.11778 -1.88174,-388.66501 -0.47576,-69.15796 -0.31253,-138.38163 3.28652,-207.46808 1.57496,-30.23229 2.40577,-36.86963 4.96224,-65.686118 -1.07629,-14.959201 4.97099,-29.507231 4.82552,-44.390535 -0.0507,-5.186474 -1.78227,-10.219212 -2.65501,-15.33198 -1.54421,-9.046373 -2.92564,-17.885345 -3.49517,-27.036731 -0.46257,-5.3437518 1.00512,-10.4679978 3.06891,-15.328298 0,0 36.95817,1.7980276 36.95817,1.7980276 l 0,0 c -3.18964,5.0355075 -7.16531,9.5191296 -10.64195,14.3635394 -5.62405,8.523812 -10.99473,17.147219 -15.48244,26.346143 -2.43765,4.996701 -5.4542,9.822495 -6.86686,15.199626 -3.78173,14.394715 -1.00597,30.037734 -4.82549,44.388046 -2.55648,28.81465 -3.38729,35.45146 -4.96221,65.68196 -3.59913,69.08491 -3.76224,138.30706 -3.28651,207.46349 1.3224,129.54842 3.67613,259.11442 1.88173,388.66858 -1.14763,38.2046 -1.27342,48.70159 -3.03629,85.27063 -1.03528,21.47583 -4.49323,34.17755 2.55224,54.32332 11.76043,33.62771 7.84192,3.37464 9.61721,20.90154 -13.4023,0.56664 -26.79311,1.81324 -40.20691,1.69993 -0.70803,-0.006 -0.46853,-1.34466 -0.57646,-2.04444 -0.20182,-1.3085 -0.21395,-2.63948 -0.34911,-3.95653 -1.01275,-9.86815 -2.24189,-19.71565 -2.97941,-29.61153 -8.75452,-32.65568 0.16674,-0.77026 -11.64979,-38.17226 -12.3915,-39.22193 -21.74659,-79.30667 -30.84434,-119.39274 -7.27816,-38.15758 -8.87276,-43.96057 -14.32269,-83.58619 -8.69564,-63.22462 -13.47772,-126.90138 -18.49506,-190.49361 -1.67423,-23.19608 -5.11867,-70.58313 -6.70747,-93.91802 -3.85963,-56.68655 -6.85185,-113.44754 -12.47906,-169.99928 -1.51382,-12.68108 -2.86377,-25.38279 -4.54145,-38.04323 -2.74957,-20.74935 -7.60144,-52.27387 -11.46941,-73.026501 C 249.20167,75.912587 239.5853,28.316719 237.02311,21.281861 234.3374,13.907875 229.68115,7.4092123 226.01017,0.47288812 218.1704,-9.2732674 210.59698,-19.657264 200.1354,-26.866323 c -1.92603,-1.327227 -8.40846,-2.868765 -6.13289,-3.409969 10.0705,-2.395088 40.68095,-1.070458 20.5848,-1.806086 -2.64054,0.877236 -5.45194,1.350032 -7.92162,2.631709 -6.4131,3.328176 -14.79877,10.799015 -19.23051,15.954163 -3.85912,4.4890543 -7.93287,8.9907158 -10.49237,14.32862909 -3.85125,8.03187101 -10.13505,38.81534791 -11.63315,45.50335291 -4.89406,30.038102 -6.71025,37.639127 -9.24287,69.305354 -1.1384,14.23379 -1.79924,28.50469 -2.34526,42.7735 -1.77114,46.28392 -1.41107,92.64847 0.5056,138.9195 0.86268,15.2818 1.64676,30.56824 2.58804,45.8454 2.5386,41.20225 3.17417,45.54531 5.98616,85.96769 1.53396,22.05061 2.68906,44.12738 4.34193,66.1694 0.57594,7.68056 1.35201,15.3448 2.02802,23.0172 4.41693,15.66702 8.79878,31.32929 14.02944,46.74993 0.42371,1.24916 4.70146,13.34245 5.75523,15.52741 0.78993,1.63789 1.90549,3.09771 2.85824,4.64656 0,0 -38.59762,0.51165 -38.59762,0.51165 z"
       id="path2993"
       style="fill:none;stroke:none" />
    <g
       id="g4023">
      <path
         d="m 465.71428,215.21933 a 417.14285,417.14285 0 1 1 -834.2857,0 417.14285,417.14285 0 1 1 834.2857,0 z"
         transform="matrix(0.82876712,0,0,0.82876712,331.79284,347.81439)"
         id="path3184"
         style="fill:#89acd6;fill-opacity:1;fill-rule:nonzero;stroke:none" />
      <path
         d="m 6.7361286,526.78175 0.3763485,0 c 47.8807509,0 96.9185929,-2.43977 140.9487729,-21.25226 44.03018,-18.81249 80.4201,-52.62588 108.02673,-91.74672 27.60664,-39.12084 47.5258,-83.47222 77.39327,-120.89548 14.93374,-18.71163 32.66407,-35.5994 53.85538,-46.73807 21.19131,-11.13868 46.1684,-16.17025 69.48094,-10.72348 15.92269,3.7202 30.61324,12.2338 42.17419,23.79737 11.56096,11.56358 20.0147,26.10992 24.90061,41.7144 9.77182,31.20897 5.04435,65.8475 -8.82065,95.46591 -13.865,29.6184 -36.29644,54.57741 -61.55415,75.35087 -25.2577,20.77345 -53.42352,37.67197 -81.47033,54.49055 -28.02334,16.80451 -56.1628,33.69369 -81.39598,54.45388 -25.23318,20.7602 -47.64152,45.70116 -61.49564,75.29445 -13.85411,29.59329 -18.5848,64.19857 -8.8387,95.38692 4.87305,15.59417 13.30853,30.13393 24.84868,41.69895 11.54015,11.56503 26.20734,20.08839 42.1113,23.82856 23.26778,5.47194 48.21143,0.50253 69.39771,-10.56422 21.18628,-11.06675 38.93739,-27.87442 53.90498,-46.51048 29.93518,-37.27213 49.96624,-81.48615 77.63062,-120.47344 27.66438,-38.98728 64.0529,-72.67205 108.0325,-91.41028 43.97959,-18.73823 92.93419,-21.16743 140.73927,-21.16743 l 0.37637,0"
         id="path3011"
         style="fill:none;stroke:#ffffff;stroke-width:31.25;stroke-linecap:butt;stroke-linejoin:miter;stroke-miterlimit:4;stroke-opacity:1;stroke-dasharray:none" />
    </g>
  </g>
  <g
     transform="translate(-26.332964,-180.46681)"
     id="layer2" />
</svg>
