<?xml version="1.0" encoding="UTF-8" standalone="no"?>
<!-- Created with Inkscape (http://www.inkscape.org/) -->

<svg
   xmlns:dc="http://purl.org/dc/elements/1.1/"
   xmlns:cc="http://creativecommons.org/ns#"
   xmlns:rdf="http://www.w3.org/1999/02/22-rdf-syntax-ns#"
   xmlns:svg="http://www.w3.org/2000/svg"
   xmlns="http://www.w3.org/2000/svg"
   xmlns:xlink="http://www.w3.org/1999/xlink"
   xmlns:sodipodi="http://sodipodi.sourceforge.net/DTD/sodipodi-0.dtd"
   xmlns:inkscape="http://www.inkscape.org/namespaces/inkscape"
   sodipodi:docname="logo.svg"
   inkscape:version="0.48.4 r9939"
   version="1.1"
   id="svg2"
   height="743.43591"
   width="743.43591">
  <metadata
     id="metadata2999">
    <rdf:RDF>
      <cc:Work
         rdf:about="">
        <dc:format>image/svg+xml</dc:format>
        <dc:type
           rdf:resource="http://purl.org/dc/dcmitype/StillImage" />
        <dc:title></dc:title>
      </cc:Work>
    </rdf:RDF>
  </metadata>
  <defs
     id="defs4">
    <linearGradient
       id="linearGradient3769">
      <stop
         style="stop-color:#ff715b;stop-opacity:1;"
         offset="0"
         id="stop3771" />
      <stop
         style="stop-color:#764248;stop-opacity:1;"
         offset="1"
         id="stop3773" />
    </linearGradient>
    <linearGradient
       id="linearGradient3917">
      <stop
         style="stop-color:#ffffff;stop-opacity:1;"
         offset="0"
         id="stop3919" />
      <stop
         style="stop-color:#ffffff;stop-opacity:0;"
         offset="1"
         id="stop3921" />
    </linearGradient>
    <inkscape:path-effect
       effect="spiro"
       id="path-effect3013"
       is_visible="true" />
    <inkscape:path-effect
       effect="spiro"
       id="path-effect3009"
       is_visible="true" />
    <radialGradient
       inkscape:collect="always"
       xlink:href="#linearGradient3917"
       id="radialGradient3923"
       cx="276.21359"
       cy="276.00336"
       fx="276.21359"
       fy="276.00336"
       r="274.00388"
       gradientUnits="userSpaceOnUse" />
  </defs>
  <sodipodi:namedview
     id="base"
     pagecolor="#ffffff"
     bordercolor="#666666"
     borderopacity="1.0"
     inkscape:pageopacity="0.0"
     inkscape:pageshadow="2"
     inkscape:zoom="0.45254834"
     inkscape:cx="326.36872"
     inkscape:cy="236.70875"
     inkscape:document-units="px"
     inkscape:current-layer="svg2"
     showgrid="false"
     inkscape:window-width="1920"
     inkscape:window-height="1017"
     inkscape:window-x="0"
     inkscape:window-y="30"
     inkscape:window-maximized="1"
     inkscape:snap-bbox="true"
     inkscape:snap-smooth-nodes="false"
     inkscape:object-nodes="false"
     inkscape:snap-object-midpoints="false"
     fit-margin-top="0"
     fit-margin-left="0"
     fit-margin-right="0"
     fit-margin-bottom="0"
     inkscape:bbox-paths="false" />
  <path
     sodipodi:type="arc"
     style="fill:#ffffff;fill-opacity:0.50196081;fill-rule:nonzero;stroke:none;display:inline"
     id="bgCircle"
     sodipodi:cx="348.4375"
     sodipodi:cy="349.24109"
     sodipodi:rx="379.6875"
     sodipodi:ry="379.6875"
     d="m 728.125,349.24109 a 379.6875,379.6875 0 1 1 -759.375,0 379.6875,379.6875 0 1 1 759.375,0 z"
     transform="matrix(0.97901026,0,0,0.97901026,30.594071,29.807349)" />
  <path
     style="fill:#d37883;fill-opacity:1;fill-rule:nonzero;stroke:none"
     clip-path="none"
     d="m 371.71796,25.999211 c -185.83335,0 -337.441697,146.628469 -345.406248,330.499999 40.598861,-0.82708 80.264118,-4.85096 115.281248,-19.8125 40.66991,-17.37677 75.05239,-49.07372 101.375,-86.375 26.44049,-37.46831 46.45959,-82.17599 77.96875,-121.65625 15.83579,-19.84187 35.00977,-38.317629 58.78125,-50.812499 17.9638,-9.44222 38.52513,-15.17736 59.40625,-14.71875 6.96037,0.15287 13.9572,1.00141 20.90625,2.625 18.99214,4.43735 36.12718,14.436615 49.65625,27.96875 13.50054,13.503599 23.18704,30.227119 28.78125,48.093749 11.18629,35.72648 5.67624,74.13025 -9.59375,106.75 -15.17949,32.42642 -39.28663,58.99048 -65.78125,80.78125 -26.44838,21.75274 -55.29493,39.02397 -83.34375,55.84375 -28.01981,16.8024 -55.45729,33.313 -79.5,53.09375 -23.99656,19.74279 -44.74089,43.08799 -57.28125,69.875 -12.45006,26.59415 -16.42908,57.41999 -8.09375,84.09375 4.16661,13.33351 11.39586,25.68766 21,35.3125 9.57572,9.59636 21.7866,16.63702 34.625,19.65625 18.68779,4.39485 39.92527,0.47719 58.28125,-9.03125 l 0.3125,-0.15625 c 18.60636,-9.71912 34.90584,-24.92785 48.96875,-42.4375 28.28842,-35.22176 48.23173,-79.11893 77.0625,-119.75 28.94847,-40.79695 67.32373,-76.5832 114.65625,-96.75 41.04439,-17.48764 84.92461,-21.49199 127.34375,-22.25 C 709.33534,172.80906 557.6681,25.999211 371.71796,25.999211 z m -21.78125,44.6875 0.65625,10.34375 -1.375,0.09375 0,-0.03125 -7.375,0.6875 0,-0.03125 -1.3125,0.15625 -1.15625,-10.28125 1.4375,-0.15625 0.0625,0 0.0625,0 7.5,-0.6875 0.0625,0 0.0625,0 1.375,-0.09375 z m -20.96875,2.25 1.4375,10.25 -3.03125,0.40625 -0.125,0.03125 -6.9375,1.15625 -1.6875,-10.21875 7.0625,-1.15625 0.0625,-0.03125 0.0625,0 3.15625,-0.4375 z m -20.75,3.6875 2.1875,10.125 -4.4375,0.96875 -0.125,0.03125 -5.375,1.3125 -2.46875,-10.0625 5.5,-1.34375 0.0625,-0.03125 0.0625,0 4.59375,-1 z m -20.46875,5.125 2.96875,9.9375 -5.625,1.65625 -0.125,0.03125 -4.03125,1.3125 -3.1875,-9.84375 4.15625,-1.34375 0.0625,-0.03125 0.0625,0 5.71875,-1.71875 z m -20.03125,6.5625 3.6875,9.65625 -6.5,2.468749 -0.125,0.0625 -2.90625,1.1875 -3.90625,-9.593749 3.03125,-1.21875 0.0625,-0.03125 0.0625,-0.03125 6.59375,-2.5 z m 166.9375,6.125 c -13.67663,0.409618 -27.73501,4.402186 -40.40625,11.062499 -18.61114,9.78247 -34.87456,25.07487 -48.90625,42.65625 -28.22578,35.36626 -48.07096,79.38288 -76.84375,120.15625 -28.89065,40.9404 -67.2658,76.87679 -114.65625,97.125 -41.08431,17.55382 -85.022654,21.58058 -127.499998,22.34375 8.392787,183.47442 159.827218,329.65625 345.374998,329.65625 185.43146,0 336.74583,-145.99987 345.3125,-329.3125 -40.50579,0.82367 -80.04024,4.82356 -115,19.71875 -40.62668,17.30966 -75.02596,48.91614 -101.40625,86.09375 -26.49799,37.34351 -46.63681,81.89625 -78.21875,121.21875 -15.87227,19.76247 -35.07755,38.14812 -58.84375,50.5625 -23.94585,12.50823 -52.47637,18.46174 -80.21875,11.9375 -18.96952,-4.46111 -36.08917,-14.4663 -49.59375,-28 -13.47616,-13.5052 -23.10801,-30.23892 -28.6875,-48.09375 -11.15687,-35.70294 -5.66441,-74.06382 9.59375,-106.65625 15.16788,-32.39957 39.24895,-58.97239 65.71875,-80.75 26.42365,-21.73963 55.25438,-38.97463 83.28125,-55.78125 28.0448,-16.81738 55.52673,-33.36209 79.59375,-53.15625 24.0208,-19.75615 44.76199,-43.09587 57.3125,-69.90625 12.46001,-26.61707 16.41985,-57.49604 8.0625,-84.1875 -4.17761,-13.34232 -11.40987,-25.68894 -21.03125,-35.3125 -9.59283,-9.59501 -21.83426,-16.621949 -34.6875,-19.624999 -5.88402,-1.374752 -12.03335,-1.93619 -18.25,-1.75 z m -186.34375,1.78125 4.15625,9.468749 -0.625,0.28125 -0.125,0.0625 -6.3125,2.9375 -0.0937,0.0625 -1.96875,0.96875 -4.625,-9.28125 2.09375,-1.031249 0.0625,0 0.0625,-0.03125 6.5,-3.0625 0.0625,-0.03125 0.0625,-0.03125 0.75,-0.3125 z m -18.90625,9.281249 4.84375,9.15625 -1.40625,0.75 -0.0937,0.0625 -6.0625,3.375 -0.0937,0.0625 -1.15625,0.6875 -5.28125,-8.90625 1.28125,-0.75 0.0625,-0.0312 0.0312,-0.0312 6.28125,-3.5 0.0312,-0.0312 0.0625,-0.0312 1.5,-0.8125 z m -18.21875,10.625 5.5,8.75 -2,1.25 -0.125,0.0937 -5.75,3.78125 -0.0312,0.0312 -0.0625,0.0312 -0.5,0.34375 -5.90625,-8.5 0.59375,-0.40625 0.0625,-0.0311 0.0625,-0.0625 5.96875,-3.90625 0.0312,-0.0312 0.0625,-0.0312 2.09375,-1.3125 z m -17.40625,11.8125 6.09375,8.375 -2.5,1.8125 -0.0937,0.0625 -5.46875,4.1875 0,0.0312 -0.0938,0.0626 -2.25,-2.96875 -4.15625,-5.15625 0.0312,-0.0312 0.0312,-0.0312 0.0625,-0.0312 5.65625,-4.34375 0.0312,-0.0312 0.0625,-0.0312 2.59375,-1.90625 z m 363,5.375 1.21875,0.9375 0.0625,0.0312 0.0312,0.0312 5.5625,4.46875 0.0312,0.0625 0.0625,0.0312 1.28125,1.09375 -6.65625,7.90625 -1.21875,-1.03125 -0.0937,-0.0625 -5.3437,-4.31235 -0.0937,-0.0937 -1.125,-0.84375 6.28125,-8.21875 z m -379.5625,7.65625 6.6875,7.90625 -2.875,2.40625 -0.0937,0.0937 -4.75,4.21875 -6.875,-7.75 4.84375,-4.28125 0.0625,-0.0625 0.0312,-0.0312 2.96875,-2.5 z m 395.75,5.84375 1.625,1.46875 0.0625,0.0312 0.0312,0.0312 5.21875,4.875 0.0312,0.0312 0.0625,0.0312 0.75,0.75 -7.25,7.375 -0.65625,-0.625 -0.0937,-0.0937 -5,-4.6875 -0.0937,-0.0625 -1.5625,-1.375 6.875,-7.75 z m -411.375,8.28125 7.21875,7.40625 -3.15625,3.09375 -0.0312,0.0312 -0.0312,0.0312 -4,4.09375 -7.40625,-7.25 4.0625,-4.15625 0.0625,-0.0312 0.0312,-0.0625 3.25,-3.15625 z m 426.5625,6.3125 2,2.03125 0.0312,0.0625 0.0312,0.0312 4.875,5.21875 0.0312,0.0312 0.0312,0.0625 0.25,0.28125 -7.71875,6.875 -0.1875,-0.21875 -0.0625,-0.0937 -4.6875,-5 -0.0937,-0.0937 -1.90625,-1.96875 7.40625,-7.21875 z m -441.15625,8.875 7.71875,6.875 -3.34375,3.78125 -0.0937,0.0937 -3.25,3.84375 -7.90625,-6.6875 3.34375,-3.9375 0.0312,-0.0312 0.0625,-0.0625 3.4375,-3.875 z m 455.3125,6.71875 2.25,2.6875 0.0312,0.0625 0.0625,0.0312 4.28125,5.34375 -8.0625,6.46875 -4.21875,-5.21875 -0.0625,-0.0937 -2.1875,-2.59375 7.90625,-6.6875 z m -468.84375,9.4375 8.21875,6.3125 -3.5,4.53125 -0.0625,0.0937 -2.5625,3.53125 -8.375,-6.09375 2.65625,-3.625 0.0312,-0.0625 0.0312,-0.0312 3.5625,-4.65625 z m 481.875,7.125 2.46875,3.375 0.0312,0.0625 0.0312,0.0625 3.5,5.0625 -8.5,5.875 -3.40625,-4.9375 -0.0312,0 -2.46875,-3.40625 8.375,-6.09375 z m -494.25,9.9375 8.65625,5.6875 -3.53125,5.375 -0.0937,0.125 -1.90625,3.09375 -8.78125,-5.5 2,-3.1875 0.0312,-0.0625 0.0312,-0.0312 3.59375,-5.5 z m 506.09375,7.46875 2.625,4.1875 0.0312,0.0625 0.0312,0.0625 2.75,4.65625 -8.90625,5.28125 -2.6875,-4.5625 -0.0625,-0.125 -2.5625,-4.0625 8.78125,-5.5 z m -517.15625,10.3125 8.90625,5.25 -0.0312,0.0625 -0.0625,0.0937 -3.375,6.0625 -0.0625,0.0937 -1.34375,2.53125 -9.15625,-4.8125 1.40625,-2.65625 0.0312,-0.0625 0.0312,-0.0312 3.5,-6.28125 0.0312,-0.0312 0.0312,-0.0625 0.0937,-0.15625 z m 527.78125,7.90625 2.65625,5.0625 0.0312,0.0625 0.0312,0.0625 2.0625,4.125 -9.28125,4.59375 -1.96875,-4 -0.0312,0 -2.65625,-5.09375 9.15625,-4.8125 z m -537.65625,10.6875 9.28125,4.625 -0.40625,0.8125 -0.0625,0.0937 -2.9375,6.3125 -0.0625,0.125 -0.78125,1.8125 -9.499998,-4.15625 0.84375,-1.9375 0.03125,-0.0625 0.03125,-0.0625 3.0625,-6.5 0.03125,-0.0625 0,-0.0625 0.468748,-0.9375 z m 546.96875,8.21875 2.65625,6.09375 0.0312,0.0625 0.0312,0.0625 1.375,3.40625 -9.5625,3.90625 -1.34375,-3.28125 -0.0625,-0.125 -2.625,-5.96875 9.5,-4.15625 z m -555.499998,11.0625 9.562498,3.90625 -0.6875,1.71875 -0.0625,0.125 -2.468748,6.53125 -0.0625,0.125 -0.3125,0.9375 -9.75,-3.4375 0.34375,-1.0625 0.03125,-0.0625 0.03125,-0.0625 2.5625,-6.75 0.03125,-0.0625 0.03125,-0.0625 0.75,-1.84375 z m 563.406248,8.3125 0.15625,0.40625 0.0312,0.0625 0.0312,0.0625 2.40625,6.875 0,0.0312 0.0312,0.0625 0.8125,2.53125 -9.84375,3.1875 -0.78125,-2.375 -0.0312,-0.125 -2.3125,-6.625 -0.0625,-0.125 -0.0937,-0.28125 9.6563,-3.68745 z m -570.593748,11.5 9.84375,3.21875 -0.90625,2.78125 -0.03125,0.125 -2.03125,6.84375 -9.9375,-2.9375 2.09375,-6.96875 0,-0.0625 0.03125,-0.0625 0.9375,-2.9375 z m 577.156248,8.53125 0.46875,1.53125 0.0312,0.0625 0,0.0625 1.90625,7.0625 0.0312,0.0625 0,0.0625 0.34375,1.40625 -10.0625,2.46875 -0.28125,-1.28125 -0.0312,-0.0625 0,-0.0625 -1.90625,-6.9375 0.0312,0 -0.4375,-1.40625 9.90625,-2.96875 z m -582.906248,11.75 10.0625,2.46875 -1,4.125 -0.03125,0.125 -1.25,5.6875 -10.125,-2.1875 1.28125,-5.84375 0,-0.0625 0.03125,-0.0625 1.03125,-4.25 z m 588.062498,8.71875 0.625,2.875 0.0312,0.0625 0,0.0625 1.40625,7.25 -10.1875,1.96875 -1.34375,-7.15625 -0.0312,-0.125 -0.59375,-2.75 10.09375,-2.1875 z m -592.406248,11.90625 10.21875,1.71875 -0.9375,5.65625 -0.03125,0.125 -0.59375,4.3125 -10.25,-1.4375 0.625,-4.4375 0,-0.0625 0.03125,-0.0625 0.9375,-5.8125 z m 596.124998,8.84375 0.625,4.5 0,0.0625 0.0312,0.0625 0.65625,5.78125 -10.28125,1.15625 -0.65625,-5.625 0,-0.125 -0.625,-4.375 10.25005,-1.4375 z m -588.562498,73.90625 0.6875,6.15625 0,0.125 0.5625,3.875 -10.25,1.4375 -0.5625,-4 0,-0.0625 -0.03125,-0.0625 -0.71875,-6.28125 10.3125,-1.1875 z m 578.437498,9.65625 10.25,1.40625 -0.53125,3.9375 0,0.0625 -0.0312,0.0625 -1.03125,6.3125 -10.21875,-1.6875 1.03125,-6.1875 0.0312,-0.125 0.5,-3.78125 z m -575.593748,10.59375 0.0625,0.375 1.34375,7.15625 0.03125,0.125 0.5,2.25 -10.125,2.1875 -0.5,-2.375 -0.03125,-0.0625 0,-0.0625 -1.40625,-7.28125 0,-0.0625 0,-0.0625 -0.09375,-0.5 10.21875,-1.6875 z m 572.124998,9.40625 10.09375,2.1875 -1.15625,5.34375 0,0.0625 -0.0312,0.0625 -1.15625,4.75 -10.0625,-2.46875 1.125,-4.625 0.0312,-0.125 1.15625,-5.1875 z m -567.874998,10.4375 0.40625,1.78125 0.03125,0.0625 0,0.0625 1.90625,6.9375 -0.03125,0 0.28125,0.90625 -9.90625,2.96875 -0.3125,-1.03125 -0.03125,-0.0625 0,-0.0625 -1.90625,-7.0625 -0.03125,-0.0625 0,-0.0625 -0.46875,-1.90625 10.0625,-2.46875 z m 562.968748,9.25 9.9375,2.96875 -1.9375,6.46875 0,0.0625 -0.0312,0.0625 -1.09375,3.40625 -9.84375,-3.1875 1.0625,-3.28125 0.0312,-0.125 1.875,-6.375 z m -557.343748,10.28125 0.9375,2.875 0.03125,0.125 2.34375,6.65625 -9.75,3.4375 -2.40625,-6.78125 0,-0.0312 -0.03125,-0.0625 -0.96875,-3.03125 9.84375,-3.1875 z m 551.062498,9.1875 9.75,3.4375 -0.1875,0.5625 -0.0312,0.0625 -0.0312,0.0625 -2.5625,6.75 -0.0312,0.0625 -0.0312,0.0625 -0.9375,2.3125 -9.59375,-3.90625 0.90625,-2.1875 0.0625,-0.125 2.46875,-6.53125 0.0625,-0.125 0.15625,-0.4375 z m -544.09375,9.875 1.53125,3.78125 0.0625,0.125 2.40625,5.5 -9.468748,4.15625 -2.46875,-5.625 -0.03125,-0.0625 -0.03125,-0.0625 -1.59375,-3.875 9.593748,-3.9375 z m 536.46875,8.9375 9.46875,4.15625 -0.625,1.46875 -0.0312,0.0625 -0.0312,0.0625 -3.0625,6.5 -0.0312,0.0625 0,0.0625 -0.6875,1.375 -9.28125,-4.59375 0.625,-1.28125 0.0625,-0.0937 2.9375,-6.3125 0.0625,-0.125 0.59375,-1.34375 z m -528.1875,9.625 2.21875,4.46875 0.0312,0 2.4375,4.625 -9.15625,4.8125 -2.4375,-4.59375 -0.0312,-0.0625 -0.0312,-0.0625 -2.28125,-4.59375 9.25,-4.59375 z m 519.25,8.625 9.15625,4.84375 -1.15625,2.1875 -0.0312,0.0625 -0.0312,0.0312 -3.5,6.28125 -0.0312,0.0312 -0.0312,0.0625 -0.34375,0.625 -8.90625,-5.28125 0.28125,-0.5 0.0625,-0.0937 3.375,-6.0625 0.0625,-0.0937 1.09375,-2.09375 z m -509.65625,9.28125 2.9375,5 0.0625,0.125 2.28125,3.625 -8.78125,5.5 -2.34375,-3.75 -0.0312,-0.0625 -0.0312,-0.0625 -3,-5.09375 8.90625,-5.28125 z m 499.5,8.3125 8.78125,5.5 -1.75,2.75 -0.0312,0.0625 -0.0312,0.0312 -3.90625,5.9375 -8.625,-5.6875 3.8125,-5.8125 0.0937,-0.125 1.6562,-2.6562 z m -488.71875,8.90625 3.71875,5.375 0.0312,0 2.15625,2.96875 -8.375,6.125 -2.15625,-2.96875 -0.0312,-0.0625 -0.0312,-0.0625 -3.8125,-5.46875 8.5,-5.90625 z m 477.34375,7.9375 8.34375,6.09375 -2.34375,3.21875 -0.0312,0.0625 -0.0312,0.0312 -3.875,5.0625 -8.21875,-6.28125 3.8125,-4.96875 0.0625,-0.0937 2.28125,-3.125 z m -465.28125,8.59375 0.0625,0.0937 0.0937,0.0937 4.3125,5.34375 0.0625,0.0937 1.84375,2.1875 -7.875,6.6875 -1.9375,-2.28125 -0.0312,-0.0625 -0.0625,-0.0312 -4.46875,-5.5625 -0.0312,-0.0312 -0.0312,-0.0625 -0.15625,-0.1875 8.21875,-6.28125 z m 452.75,7.40625 7.90625,6.6875 -3,3.5625 -0.0312,0.0312 -0.0625,0.0625 -3.78125,4.25 -7.71875,-6.84375 3.6875,-4.1875 0.0937,-0.0937 2.90625,-3.46875 z m -439.65625,8.125 0.53125,0.59375 0.0625,0.0937 4.6875,5 0.0937,0.0937 1.53125,1.59375 -7.40625,7.21875 -1.625,-1.65625 -0.0312,-0.0625 -0.0312,-0.0312 -4.875,-5.21875 -0.0312,-0.0312 -0.0312,-0.0625 -0.59375,-0.65625 7.71875,-6.875 z m 426.0625,7 7.40625,7.21875 -3.6875,3.8125 -0.0625,0.0312 -0.0312,0.0625 -3.625,3.5 -7.21875,-7.40625 3.53125,-3.4375 0.0312,-0.0312 0.0312,-0.0312 3.625,-3.71875 z m -411.90625,7.59375 1.03125,1 0.0937,0.0937 5,4.6875 0.0937,0.0625 1.1875,1.03125 -6.875,7.75 -1.25,-1.125 -0.0625,-0.0312 -0.0312,-0.0312 -5.21875,-4.875 -0.0312,-0.0312 -0.0625,-0.0312 -1.09375,-1.09375 7.21875,-7.40625 z m 397.3125,6.53125 6.875,7.75 -4.46875,3.9375 -0.0625,0.0625 -0.0312,0.0312 -3.34375,2.84375 -6.6875,-7.90625 3.25,-2.75 0.0937,-0.0937 4.375,-3.875 z m -382.1875,7.0625 1.59375,1.34375 0.0937,0.0625 5.34375,4.3125 0.0937,0.0937 0.71875,0.53125 -6.3125,8.21875 -0.78125,-0.625 -0.0625,-0.0312 -0.0312,-0.0312 -5.5625,-4.46875 -0.0312,-0.0625 -0.0625,-0.0312 -1.6875,-1.4375 6.6875,-7.875 z m 366.625,6.03125 6.3125,8.21875 -5.28125,4.03125 -0.0312,0.0312 -0.0625,0.0312 -3,2.1875 -6.09375,-8.34375 2.90625,-2.125 0.0937,-0.0625 5.15625,-3.96875 z m -16.53125,12.03125 5.90625,8.53125 -0.15625,0.0937 -0.0625,0.0313 -0.0625,0.0625 -5.96875,3.90625 -0.0312,0.0312 -0.0625,0.0312 -2.53125,1.59375 -5.5,-8.78125 2.4375,-1.5 0.125,-0.0937 5.75,-3.78125 0.0937,-0.0625 0.0625,-0.0625 z m -17.21875,10.78125 5.28125,8.9375 -0.84375,0.46875 -0.0625,0.0312 -0.0312,0.0312 -6.28125,3.5 -0.0312,0.0312 -0.0625,0.0312 -1.96875,1.03125 -4.8125,-9.15625 1.84375,-0.96875 0.0937,-0.0625 6.0625,-3.375 0.0937,-0.0625 0.71875,-0.4375 z m -17.9375,9.5625 4.625,9.28125 -1.625,0.8125 -0.0625,0 -0.0625,0.0312 -6.5,3.0625 -0.0625,0.0312 -0.0625,0.0312 -1.25,0.53125 -4.125,-9.5 1.09375,-0.4686 0.125,-0.0625 6.3125,-2.9375 0.0937,-0.0625 1.5,-0.75 z m -18.53125,8.28125 3.90625,9.59375 -2.5625,1.03125 -0.0625,0.0312 -0.0625,0.0312 -6.75,2.5625 -0.0625,0.0312 -0.0625,0.0312 -0.34375,0.0937 -3.4375,-9.75 0.21875,-0.0625 0.125,-0.0625 6.53125,-2.46875 0.125,-0.0625 2.4375,-1 z m -19.09375,6.96875 3.1875,9.84375 -3.65625,1.1875 -0.0625,0.0312 -0.0625,0 -6.21875,1.875 -2.96875,-9.9375 6.125,-1.8125 0.125,-0.0312 3.53125,-1.15625 z m -19.53125,5.59375 2.46875,10.0625 -5,1.21875 -0.0625,0.0312 -0.0625,0 -5.09375,1.125 -2.1875,-10.125 4.9375,-1.0937 0.125,-0.0312 4.875,-1.1875 z m -19.84375,4.25 1.6875,10.21875 -6.5625,1.0625 -0.0625,0.0312 -0.0625,0 -3.65625,0.5 -1.4375,-10.25 3.53125,-0.46875 0.125,-0.0312 6.4375,-1.0625 z m -20.25,2.8125 1.1875,10.28125 -0.9375,0.125 -0.0625,0 -0.0625,0 -7.5,0.6875 -0.0625,0 -0.0625,0 -1.875,0.125 -0.65625,-10.34375 1.875,-0.125 0,0.0312 7.375,-0.6875 0.78125,-0.0937 z"
     id="Main"
     inkscape:connector-curvature="0" />
</svg>
