<svg xmlns:dc="http://purl.org/dc/elements/1.1/" xmlns:cc="http://creativecommons.org/ns#" xmlns:rdf="http://www.w3.org/1999/02/22-rdf-syntax-ns#" xmlns:svg="http://www.w3.org/2000/svg" xmlns="http://www.w3.org/2000/svg" xmlns:xlink="http://www.w3.org/1999/xlink" xmlns:inkscape="http://www.inkscape.org/namespaces/inkscape" version="1.1" width="712.5" height="712.5" id="svg2">
  <metadata id="metadata2999">
    <rdf:RDF>
      <cc:Work rdf:about="">
        <dc:format>image/svg+xml</dc:format>
        <dc:type rdf:resource="http://purl.org/dc/dcmitype/StillImage"/>
        <dc:title/>
      </cc:Work>
    </rdf:RDF>
  </metadata>
  <defs id="defs4">
    <linearGradient id="linearGradient3769">
      <stop id="stop3771" style="stop-color:#ff715b;stop-opacity:1" offset="0"/>
      <stop id="stop3773" style="stop-color:#764248;stop-opacity:1" offset="1"/>
    </linearGradient>
    <linearGradient id="linearGradient3917">
      <stop id="stop3919" style="stop-color:#ffffff;stop-opacity:1" offset="0"/>
      <stop id="stop3921" style="stop-color:#ffffff;stop-opacity:0" offset="1"/>
    </linearGradient>
    <inkscape:path-effect effect="spiro" id="path-effect3013"/>
    <inkscape:path-effect effect="spiro" id="path-effect3009"/>
    <radialGradient cx="276.2" cy="276" r="274" fx="276.21359" fy="276.00336" id="radialGradient3923" xlink:href="#linearGradient3917" gradientUnits="userSpaceOnUse"/>
  </defs>
  <path d="m 728.1 349.2 a 379.7 379.7 0 1 1 -759.4 0 379.7 379.7 0 1 1 759.4 0 z" transform="matrix(0.9382716,0,0,0.9382716,29.320987,28.567003)" id="bgCircle" style="fill:#ffffff;fill-opacity:0.39215686;fill-rule:nonzero;stroke:none;display:inline"/>
  <path d="m 356.2 10.5 c -185.8 0 -337.4 146.6 -345.4 330.5 40.6 -0.8 80.3 -4.9 115.3 -19.8 40.7 -17.4 75.1 -49.1 101.4 -86.4 26.4 -37.5 46.5 -82.2 78 -121.7 15.8 -19.8 35 -38.3 58.8 -50.8 18 -9.4 38.5 -15.2 59.4 -14.7 7 0.2 14 1 20.9 2.6 19 4.4 36.1 14.4 49.7 28 13.5 13.5 23.2 30.2 28.8 48.1 11.2 35.7 5.7 74.1 -9.6 106.8 -15.2 32.4 -39.3 59 -65.8 80.8 -26.4 21.8 -55.3 39 -83.3 55.8 -28 16.8 -55.5 33.3 -79.5 53.1 -24 19.7 -44.7 43.1 -57.3 69.9 -12.5 26.6 -16.4 57.4 -8.1 84.1 4.2 13.3 11.4 25.7 21 35.3 9.6 9.6 21.8 16.6 34.6 19.7 18.7 4.4 39.9 0.5 58.3 -9 l 0.3 -0.2 c 18.6 -9.7 34.9 -24.9 49 -42.4 28.3 -35.2 48.2 -79.1 77.1 -119.8 28.9 -40.8 67.3 -76.6 114.7 -96.8 41 -17.5 84.9 -21.5 127.3 -22.2 C 693.9 157.3 542.2 10.5 356.2 10.5 z m -21.8 44.7 0.7 10.3 -1.4 0.1 0 -0 -7.4 0.7 0 -0 -1.3 0.2 -1.2 -10.3 1.4 -0.2 0.1 0 0.1 0 7.5 -0.7 0.1 0 0.1 0 1.4 -0.1 z m -21 2.2 1.4 10.2 -3 0.4 -0.1 0 -6.9 1.2 -1.7 -10.2 7.1 -1.2 0.1 -0 0.1 0 3.2 -0.4 z m -20.8 3.7 2.2 10.1 -4.4 1 -0.1 0 -5.4 1.3 -2.5 -10.1 5.5 -1.3 0.1 -0 0.1 0 4.6 -1 z m -20.5 5.1 3 9.9 -5.6 1.7 -0.1 0 -4 1.3 -3.2 -9.8 4.2 -1.3 L 266.5 68 l 0.1 0 5.7 -1.7 z m -20 6.6 3.7 9.7 -6.5 2.5 -0.1 0.1 -2.9 1.2 L 242.5 76.6 l 3 -1.2 0.1 -0 0.1 -0 6.6 -2.5 z m 166.9 6.1 c -13.7 0.4 -27.7 4.4 -40.4 11.1 -18.6 9.8 -34.9 25.1 -48.9 42.7 -28.2 35.4 -48.1 79.4 -76.8 120.2 -28.9 40.9 -67.3 76.9 -114.7 97.1 -41.1 17.6 -85 21.6 -127.5 22.3 8.4 183.5 159.8 329.7 345.4 329.7 185.4 0 336.7 -146 345.3 -329.3 -40.5 0.8 -80 4.8 -115 19.7 -40.6 17.3 -75 48.9 -101.4 86.1 -26.5 37.3 -46.6 81.9 -78.2 121.2 -15.9 19.8 -35.1 38.1 -58.8 50.6 -23.9 12.5 -52.5 18.5 -80.2 11.9 -19 -4.5 -36.1 -14.5 -49.6 -28 -13.5 -13.5 -23.1 -30.2 -28.7 -48.1 -11.2 -35.7 -5.7 -74.1 9.6 -106.7 15.2 -32.4 39.2 -59 65.7 -80.8 26.4 -21.7 55.3 -39 83.3 -55.8 28 -16.8 55.5 -33.4 79.6 -53.2 24 -19.8 44.8 -43.1 57.3 -69.9 12.5 -26.6 16.4 -57.5 8.1 -84.2 -4.2 -13.3 -11.4 -25.7 -21 -35.3 -9.6 -9.6 -21.8 -16.6 -34.7 -19.6 -5.9 -1.4 -12 -1.9 -18.2 -1.8 z M 232.8 80.8 237 90.2 236.4 90.5 l -0.1 0.1 -6.3 2.9 -0.1 0.1 -2 1 -4.6 -9.3 2.1 -1 0.1 0 0.1 -0 6.5 -3.1 0.1 -0 0.1 -0 0.8 -0.3 z m -18.9 9.3 4.8 9.2 -1.4 0.8 -0.1 0.1 -6.1 3.4 -0.1 0.1 -1.2 0.7 -5.3 -8.9 1.3 -0.8 0.1 -0 0 -0 6.3 -3.5 0 -0 0.1 -0 1.5 -0.8 z m -18.2 10.6 5.5 8.8 -2 1.2 -0.1 0.1 -5.8 3.8 -0 0 -0.1 0 -0.5 0.3 -5.9 -8.5 0.6 -0.4 L 187.5 106 l 0.1 -0.1 6 -3.9 0 -0 0.1 -0 2.1 -1.3 z m -17.4 11.8 6.1 8.4 -2.5 1.8 -0.1 0.1 -5.5 4.2 0 0 L 176.2 127 174 124 l -4.2 -5.2 0 -0 0 -0 0.1 -0 5.7 -4.3 0 -0 0.1 -0 2.6 -1.9 z m 363 5.4 1.2 0.9 0.1 0 0 0 5.6 4.5 0 0.1 0.1 0 1.3 1.1 -6.7 7.9 -1.2 -1 -0.1 -0.1 L 536.2 127 l -0.1 -0.1 -1.1 -0.8 6.3 -8.2 z M 161.8 125.5 l 6.7 7.9 -2.9 2.4 -0.1 0.1 -4.8 4.2 -6.9 -7.8 4.8 -4.3 0.1 -0.1 0 -0 3 -2.5 z m 395.8 5.8 1.6 1.5 0.1 0 0 0 5.2 4.9 0 0 0.1 0 0.8 0.8 -7.2 7.4 -0.7 -0.6 -0.1 -0.1 -5 -4.7 -0.1 -0.1 -1.6 -1.4 6.9 -7.8 z m -411.4 8.3 7.2 7.4 -3.2 3.1 -0 0 -0 0 -4 4.1 -7.4 -7.2 4.1 -4.2 0.1 -0 0 -0.1 3.2 -3.2 z m 426.6 6.3 2 2 0 0.1 0 0 4.9 5.2 0 0 0 0.1 0.2 0.3 -7.7 6.9 -0.2 -0.2 -0.1 -0.1 -4.7 -5 -0.1 -0.1 -1.9 -2 7.4 -7.2 z m -441.2 8.9 7.7 6.9 -3.3 3.8 -0.1 0.1 -3.2 3.8 -7.9 -6.7 3.3 -3.9 0 -0 0.1 -0.1 3.4 -3.9 z m 455.3 6.7 2.2 2.7 0 0.1 0.1 0 4.3 5.3 -8.1 6.5 -4.2 -5.2 -0.1 -0.1 -2.2 -2.6 7.9 -6.7 z M 118 171 l 8.2 6.3 -3.5 4.5 -0.1 0.1 -2.6 3.5 -8.4 -6.1 2.7 -3.6 0 -0.1 0 -0 3.6 -4.7 z m 481.9 7.1 2.5 3.4 0 0.1 0 0.1 3.5 5.1 -8.5 5.9 -3.4 -4.9 -0 0 -2.5 -3.4 8.4 -6.1 z m -494.2 9.9 8.7 5.7 -3.5 5.4 -0.1 0.1 -1.9 3.1 -8.8 -5.5 2 -3.2 0 -0.1 0 -0 3.6 -5.5 z m 506.1 7.5 2.6 4.2 0 0.1 0 0.1 2.8 4.7 -8.9 5.3 -2.7 -4.6 -0.1 -0.1 -2.6 -4.1 8.8 -5.5 z m -517.2 10.3 8.9 5.2 -0 0.1 -0.1 0.1 -3.4 6.1 -0.1 0.1 -1.3 2.5 -9.2 -4.8 1.4 -2.7 0 -0.1 0 -0 3.5 -6.3 0 -0 0 -0.1 0.1 -0.2 z m 527.8 7.9 2.7 5.1 0 0.1 0 0.1 2.1 4.1 -9.3 4.6 -2 -4 -0 0 -2.7 -5.1 9.2 -4.8 z m -537.7 10.7 9.3 4.6 -0.4 0.8 -0.1 0.1 -2.9 6.3 -0.1 0.1 -0.8 1.8 -9.5 -4.2 0.8 -1.9 0 -0.1 0 -0.1 3.1 -6.5 0 -0.1 0 -0.1 0.5 -0.9 z m 547 8.2 2.7 6.1 0 0.1 0 0.1 1.4 3.4 -9.6 3.9 -1.3 -3.3 -0.1 -0.1 -2.6 -6 9.5 -4.2 z m -555.5 11.1 9.6 3.9 -0.7 1.7 -0.1 0.1 -2.5 6.5 -0.1 0.1 -0.3 0.9 -9.8 -3.4 0.3 -1.1 0 -0.1 0 -0.1 2.6 -6.8 0 -0.1 0 -0.1 0.8 -1.8 z M 639.6 252 l 0.2 0.4 0 0.1 0 0.1 2.4 6.9 0 0 0 0.1 0.8 2.5 -9.8 3.2 -0.8 -2.4 -0 -0.1 -2.3 -6.6 -0.1 -0.1 -0.1 -0.3 L 639.6 252 z m -570.6 11.5 9.8 3.2 -0.9 2.8 -0 0.1 -2 6.8 -9.9 -2.9 L 68 266.6 68 266.5 l 0 -0.1 0.9 -2.9 z m 577.2 8.5 0.5 1.5 0 0.1 0 0.1 1.9 7.1 0 0.1 0 0.1 0.3 1.4 -10.1 2.5 -0.3 -1.3 -0 -0.1 0 -0.1 -1.9 -6.9 0 0 -0.4 -1.4 9.9 -3 z m -582.9 11.8 10.1 2.5 -1 4.1 L 72.2 290.5 71 296.2 60.9 294 l 1.3 -5.8 0 -0.1 0 -0.1 1 -4.2 z m 588.1 8.7 0.6 2.9 0 0.1 0 0.1 1.4 7.2 -10.2 2 -1.3 -7.2 -0 -0.1 -0.6 -2.8 10.1 -2.2 z M 58.9 304.4 l 10.2 1.7 -0.9 5.7 -0 0.1 -0.6 4.3 -10.2 -1.4 0.6 -4.4 0 -0.1 0 -0.1 0.9 -5.8 z M 655 313.2 l 0.6 4.5 0 0.1 0 0.1 0.7 5.8 -10.3 1.2 -0.7 -5.6 0 -0.1 -0.6 -4.4 L 655 313.2 z m -588.6 73.9 0.7 6.2 0 0.1 0.6 3.9 -10.2 1.4 -0.6 -4 0 -0.1 -0 -0.1 -0.7 -6.3 10.3 -1.2 z m 578.4 9.7 10.2 1.4 -0.5 3.9 0 0.1 -0 0.1 -1 6.3 -10.2 -1.7 1 -6.2 0 -0.1 0.5 -3.8 z m -575.6 10.6 0.1 0.4 1.3 7.2 0 0.1 0.5 2.2 -10.1 2.2 -0.5 -2.4 -0 -0.1 0 -0.1 -1.4 -7.3 0 -0.1 0 -0.1 -0.1 -0.5 10.2 -1.7 z m 572.1 9.4 L 651.5 419 l -1.2 5.3 0 0.1 -0 0.1 -1.2 4.8 -10.1 -2.5 1.1 -4.6 0 -0.1 1.2 -5.2 z m -567.9 10.4 0.4 1.8 0 0.1 0 0.1 1.9 6.9 -0 0 L 76.1 437 l -9.9 3 -0.3 -1 -0 -0.1 0 -0.1 -1.9 -7.1 -0 -0.1 0 -0.1 -0.5 -1.9 10.1 -2.5 z M 636.5 436.5 l 9.9 3 -1.9 6.5 0 0.1 -0 0.1 -1.1 3.4 -9.8 -3.2 1.1 -3.3 0 -0.1 1.9 -6.4 z m -557.3 10.3 0.9 2.9 0 0.1 2.3 6.7 -9.8 3.4 -2.4 -6.8 0 -0 -0 -0.1 -1 -3 9.8 -3.2 z m 551.1 9.2 9.8 3.4 -0.2 0.6 -0 0.1 -0 0.1 -2.6 6.8 -0 0.1 -0 0.1 -0.9 2.3 -9.6 -3.9 0.9 -2.2 0.1 -0.1 2.5 -6.5 0.1 -0.1 0.2 -0.4 z m -544.1 9.9 1.5 3.8 0.1 0.1 2.4 5.5 -9.5 4.2 -2.5 -5.6 -0 -0.1 -0 -0.1 -1.6 -3.9 9.6 -3.9 z m 536.5 8.9 9.5 4.2 -0.6 1.5 -0 0.1 -0 0.1 -3.1 6.5 -0 0.1 0 0.1 -0.7 1.4 -9.3 -4.6 0.6 -1.3 0.1 -0.1 2.9 -6.3 0.1 -0.1 0.6 -1.3 z m -528.2 9.6 2.2 4.5 0 0 2.4 4.6 -9.2 4.8 -2.4 -4.6 -0 -0.1 -0 -0.1 L 85.2 489 l 9.2 -4.6 z m 519.2 8.6 9.2 4.8 -1.2 2.2 -0 0.1 -0 0 -3.5 6.3 -0 0 -0 0.1 -0.3 0.6 -8.9 -5.3 0.3 -0.5 0.1 -0.1 3.4 -6.1 0.1 -0.1 1.1 -2.1 z M 104 502.3 l 2.9 5 0.1 0.1 2.3 3.6 -8.8 5.5 -2.3 -3.8 -0 -0.1 -0 -0.1 -3 -5.1 L 104 502.3 z m 499.5 8.3 8.8 5.5 -1.8 2.8 -0 0.1 -0 0 -3.9 5.9 -8.6 -5.7 3.8 -5.8 0.1 -0.1 L 603.5 510.6 z m -488.7 8.9 3.7 5.4 0 0 2.2 3 -8.4 6.1 -2.2 -3 -0 -0.1 -0 -0.1 -3.8 -5.5 8.5 -5.9 z m 477.3 7.9 8.3 6.1 -2.3 3.2 -0 0.1 -0 0 -3.9 5.1 -8.2 -6.3 3.8 -5 0.1 -0.1 2.3 -3.1 z m -465.3 8.6 0.1 0.1 0.1 0.1 4.3 5.3 0.1 0.1 1.8 2.2 -7.9 6.7 -1.9 -2.3 -0 -0.1 -0.1 -0 -4.5 -5.6 -0 -0 -0 -0.1 -0.2 -0.2 8.2 -6.3 z m 452.8 7.4 7.9 6.7 -3 3.6 -0 0 -0.1 0.1 -3.8 4.2 -7.7 -6.8 3.7 -4.2 0.1 -0.1 2.9 -3.5 z m -439.7 8.1 0.5 0.6 0.1 0.1 4.7 5 0.1 0.1 1.5 1.6 -7.4 7.2 -1.6 -1.7 -0 -0.1 -0 -0 -4.9 -5.2 -0 -0 -0 -0.1 -0.6 -0.7 7.7 -6.9 z m 426.1 7 7.4 7.2 -3.7 3.8 -0.1 0 -0 0.1 -3.6 3.5 -7.2 -7.4 3.5 -3.4 0 -0 0 -0 3.6 -3.7 z m -411.9 7.6 1 1 0.1 0.1 5 4.7 0.1 0.1 1.2 1 -6.9 7.8 -1.2 -1.1 -0.1 -0 -0 -0 -5.2 -4.9 -0 -0 -0.1 -0 -1.1 -1.1 7.2 -7.4 z m 397.3 6.5 6.9 7.8 -4.5 3.9 -0.1 0.1 -0 0 -3.3 2.8 -6.7 -7.9 3.2 -2.8 0.1 -0.1 4.4 -3.9 z m -382.2 7.1 1.6 1.3 0.1 0.1 5.3 4.3 0.1 0.1 0.7 0.5 -6.3 8.2 -0.8 -0.6 -0.1 -0 -0 -0 -5.6 -4.5 -0 -0.1 -0.1 -0 -1.7 -1.4 6.7 -7.9 z m 366.6 6 6.3 8.2 -5.3 4 -0 0 -0.1 0 -3 2.2 -6.1 -8.3 2.9 -2.1 0.1 -0.1 5.2 -4 z m -16.5 12 5.9 8.5 -0.2 0.1 L 525 606.5 l -0.1 0.1 -6 3.9 -0 0 -0.1 0 -2.5 1.6 -5.5 -8.8 2.4 -1.5 0.1 -0.1 5.8 -3.8 0.1 -0.1 0.1 -0.1 z m -17.2 10.8 5.3 8.9 -0.8 0.5 -0.1 0 -0 0 -6.3 3.5 -0 0 -0.1 0 -2 1 -4.8 -9.2 1.8 -1 0.1 -0.1 6.1 -3.4 0.1 -0.1 0.7 -0.4 z m -17.9 9.6 4.6 9.3 -1.6 0.8 -0.1 0 -0.1 0 -6.5 3.1 -0.1 0 -0.1 0 -1.2 0.5 -4.1 -9.5 L 476.1 622 l 0.1 -0.1 6.3 -2.9 0.1 -0.1 1.5 -0.8 z m -18.5 8.3 3.9 9.6 -2.6 1 -0.1 0 -0.1 0 -6.8 2.6 -0.1 0 -0.1 0 -0.3 0.1 -3.4 -9.8 0.2 -0.1 0.1 -0.1 6.5 -2.5 0.1 -0.1 2.4 -1 z m -19.1 7 3.2 9.8 -3.7 1.2 L 446 644.5 l -0.1 0 -6.2 1.9 -3 -9.9 6.1 -1.8 0.1 -0 3.5 -1.2 z M 427 639 l 2.5 10.1 -5 1.2 -0.1 0 -0.1 0 -5.1 1.1 -2.2 -10.1 L 422 640.2 l 0.1 -0 4.9 -1.2 z m -19.8 4.2 1.7 10.2 -6.6 1.1 -0.1 0 -0.1 0 -3.7 0.5 -1.4 -10.2 3.5 -0.5 0.1 -0 6.4 -1.1 z m -20.2 2.8 1.2 10.3 -0.9 0.1 -0.1 0 -0.1 0 -7.5 0.7 -0.1 0 -0.1 0 -1.9 0.1 -0.7 -10.3 1.9 -0.1 0 0 7.4 -0.7 0.8 -0.1 z" id="Main" style="fill:#d37883;fill-opacity:1;fill-rule:nonzero;stroke:none"/>
</svg>
